# xmcd
#
# Track frame offsets: 
#        150
#        12139
#        23056
#        36340
#        48447
#        61390
#        73024
#        86300
#        100718
#        117856
#        129322
#        146873
#        163438
#        174027
#        185813
#        197071
#        212066
#        227910
#        243611
#        256479
#
# Disc length: 3574 seconds
#
# Revision: 0
# Processed by: cddbd v1.5.1PL0 Copyright (c) Steve Scherf et al.
# Submitted via: ExactAudioCopy v0.95a5
#
DISCID=1e0df414
DTITLE=Various Artist - Ultimate SOUL
DYEAR=2003
DGENRE=Soul
TTITLE0=Sam and Dave - Soul Man
TTITLE1=Aretha Franklin - Respect
TTITLE2=Ben E. King - Stand By Me
TTITLE3=Otis Redding - (Sittin' On) The Dock Of The Bay
TTITLE4=Percey Sledge - When A Man Loves A Women
TTITLE5=Wilson Picket - In The Midnight Hour
TTITLE6=Dionne Warwick - Walk On By
TTITLE7=The Spinners - I'll Be Around
TTITLE8=Major Harris - Love Won't Let Me Wait
TTITLE9=Barbara Lewis - Baby I'm Yours
TTITLE10=Brook Benton - Rainy Night In Geogia
TTITLE11=Tower Of Power - So Very Hard To Go
TTITLE12=Carla Thomas - Gee Whiz (Look At His Eyes)
TTITLE13=Sam and Dave - Hold On I'm Comin'
TTITLE14=Clarence Carter - Slip Away
TTITLE15=Otis Redding - Try A Little Tenderness
TTITLE16=Chaka Khan - I'm Every Woman
TTITLE17=The Staple Singers - Let's Do It Again
TTITLE18=Aretha Franklin - I Never Loved A Man (The Way I Loved You)
TTITLE19=The Drifters - Save The Last Dance For Me
EXTD=
EXTT0=
EXTT1=
EXTT2=
EXTT3=
EXTT4=
EXTT5=
EXTT6=
EXTT7=
EXTT8=
EXTT9=
EXTT10=
EXTT11=
EXTT12=
EXTT13=
EXTT14=
EXTT15=
EXTT16=
EXTT17=
EXTT18=
EXTT19=
PLAYORDER=
